<svg xmlns="http://www.w3.org/2000/svg" xmlns:xlink="http://www.w3.org/1999/xlink" width="1080" zoomAndPan="magnify" viewBox="0 0 810 809.999993" height="1080" preserveAspectRatio="xMidYMid meet" version="1.0"><defs><clipPath id="id1"><path d="M 294 143.742188 L 515.996094 143.742188 L 515.996094 666.492188 L 294 666.492188 Z M 294 143.742188 " clip-rule="nonzero"/></clipPath></defs><g clip-path="url(#id1)"><path fill="rgb(0%, 0%, 0%)" d="M 294.058594 298.609375 C 294.914062 298.222656 295.535156 298.519531 296.164062 298.679688 C 297.441406 299 298.707031 299.363281 300.007812 299.65625 C 307.363281 301.34375 314.816406 301.234375 322.277344 300.773438 C 330.386719 300.257812 338.503906 300.035156 346.628906 300.097656 C 352.152344 300.136719 357.570312 300.804688 362.816406 302.640625 C 364.355469 303.1875 365.964844 303.605469 367.542969 304.078125 C 373.4375 305.847656 378.285156 309.496094 383.3125 312.832031 C 388.09375 316 392.359375 319.78125 396.464844 323.753906 C 398.28125 325.515625 400.121094 327.21875 401.578125 329.320312 C 402.378906 330.371094 403.246094 331.359375 404.175781 332.296875 C 404.308594 332.492188 404.488281 332.621094 404.714844 332.6875 C 404.941406 332.757812 405.164062 332.742188 405.378906 332.648438 C 405.988281 331.847656 405.550781 330.953125 405.253906 330.210938 C 403.644531 326.242188 402.679688 322.023438 400.636719 318.226562 C 399.699219 316.488281 398.886719 314.664062 397.792969 313.03125 C 393.710938 306.90625 389.921875 300.597656 385.453125 294.726562 C 381.933594 290.109375 378.679688 285.257812 375.453125 280.414062 C 370.734375 273.308594 367.375 265.523438 365.066406 257.359375 C 362.484375 248.316406 361.328125 239.089844 361.601562 229.6875 C 361.75 224.632812 362.027344 219.589844 362.4375 214.554688 C 362.789062 210.289062 363.097656 206.019531 363.429688 201.753906 C 363.507812 200.796875 363.457031 199.789062 364.113281 199.097656 C 364.878906 198.917969 365.003906 199.398438 365.152344 199.792969 C 365.6875 201.238281 366.273438 202.664062 366.71875 204.128906 C 367.558594 206.886719 368.925781 209.390625 370.253906 211.921875 C 370.539062 212.457031 370.804688 213.074219 371.738281 213.269531 C 371.660156 211.519531 371.613281 209.898438 371.507812 208.269531 C 370.933594 199.417969 371.953125 190.726562 373.898438 182.097656 C 375.4375 175.109375 378.117188 168.53125 381.042969 162.023438 C 383.417969 156.808594 386.214844 151.835938 389.433594 147.097656 C 390.121094 145.960938 390.96875 144.960938 391.976562 144.09375 C 392.144531 143.933594 392.339844 143.847656 392.570312 143.839844 C 392.800781 143.832031 393.003906 143.902344 393.179688 144.046875 C 393.40625 144.238281 393.683594 144.621094 393.636719 144.847656 C 393.054688 147.488281 393.785156 150.101562 393.742188 152.722656 C 393.679688 156.617188 394.488281 160.375 395.511719 164.085938 C 397.851562 172.578125 401.203125 180.675781 404.9375 188.652344 C 408.050781 195.296875 411.476562 201.839844 413.4375 208.984375 C 415.519531 216.441406 416.398438 224.039062 416.078125 231.773438 C 415.730469 239.371094 414.675781 246.867188 412.914062 254.261719 C 412.589844 255.640625 412.671875 256.792969 413.457031 258.007812 C 414.527344 259.683594 415.371094 261.46875 415.996094 263.355469 C 416.199219 263.960938 416.417969 264.601562 417.035156 264.972656 C 417.738281 265.097656 417.964844 264.554688 418.25 264.09375 C 421.800781 258.40625 425.710938 252.976562 429.976562 247.800781 C 432.765625 244.398438 435.886719 241.332031 439.34375 238.609375 C 442.882812 235.796875 446.71875 233.453125 450.371094 230.824219 C 455.425781 227.121094 460.28125 223.175781 464.9375 218.984375 C 465.425781 218.546875 465.835938 218.015625 466.308594 217.566406 C 466.78125 217.113281 467.28125 216.6875 467.800781 216.285156 C 468.136719 216.027344 468.457031 215.675781 468.953125 215.804688 C 469.167969 215.871094 469.34375 215.996094 469.472656 216.179688 C 469.605469 216.363281 469.667969 216.566406 469.667969 216.792969 C 469.761719 217.777344 469.804688 218.761719 469.792969 219.753906 C 469.65625 223.929688 469.851562 228.09375 470.039062 232.265625 C 470.519531 242.730469 470.144531 253.148438 467.507812 263.347656 C 466.335938 267.945312 464.671875 272.351562 462.507812 276.574219 C 461.449219 278.625 460.402344 280.675781 459.355469 282.730469 C 456.9375 287.480469 453.515625 291.445312 449.855469 295.28125 C 446.414062 298.890625 442.5 301.84375 438.316406 304.515625 C 435.820312 306.109375 433.332031 307.738281 430.941406 309.488281 C 428.199219 311.496094 425.613281 313.722656 422.863281 315.734375 C 420.382812 317.558594 418.058594 319.566406 415.890625 321.757812 C 414.59375 323.105469 413.457031 324.574219 412.476562 326.167969 C 411.679688 327.425781 411.09375 328.777344 410.722656 330.21875 C 410.351562 331.660156 410.210938 333.125 410.304688 334.613281 C 410.5 340.050781 411.789062 345.269531 412.996094 350.507812 C 413.738281 353.710938 414.78125 356.847656 415.625 360.035156 C 416.605469 363.75 417.464844 367.496094 418.472656 371.195312 C 420.289062 377.875 422.183594 384.53125 424.027344 391.210938 C 424.585938 393.21875 425.105469 395.242188 425.632812 397.257812 C 426.46875 400.445312 427.269531 403.640625 428.128906 406.824219 C 429.046875 409.996094 429.695312 413.21875 430.078125 416.5 C 430.167969 417.386719 429.933594 418.550781 431.289062 419.136719 C 431.734375 417.984375 432.222656 416.902344 432.585938 415.773438 C 434.058594 411.382812 436.003906 407.210938 438.421875 403.261719 C 439.507812 401.539062 439.988281 399.660156 439.871094 397.625 C 439.648438 394.097656 440.0625 390.605469 440.382812 387.105469 C 440.644531 384.261719 441.015625 381.425781 441.191406 378.578125 C 441.542969 373.40625 442.367188 368.316406 443.667969 363.300781 C 445.171875 357.347656 446.789062 351.410156 448.710938 345.558594 C 450.539062 339.980469 453.074219 334.78125 455.90625 329.699219 C 458.738281 324.613281 462.535156 320.417969 466.855469 316.613281 C 470.417969 313.492188 474.246094 310.703125 478.511719 308.632812 C 481.691406 307.140625 484.941406 305.8125 488.257812 304.644531 C 491.457031 303.464844 494.59375 302.238281 497.488281 300.410156 C 499.703125 299.007812 502.203125 298.070312 504.558594 296.898438 C 507.832031 295.277344 510.824219 293.265625 513.148438 290.382812 C 513.4375 290.050781 513.757812 289.761719 514.113281 289.503906 C 514.460938 289.230469 514.753906 289.316406 515.820312 289.917969 C 515.933594 290.953125 515.277344 291.777344 515.011719 292.710938 C 512.757812 300.636719 510.492188 308.585938 509.558594 316.785156 C 508.753906 323.335938 507.578125 329.816406 506.035156 336.230469 C 505.3125 339.359375 504.023438 342.257812 502.570312 345.109375 C 499.53125 351.117188 495.648438 356.554688 491.453125 361.800781 C 488.761719 365.171875 485.570312 368.015625 482.335938 370.824219 C 481.515625 371.542969 480.671875 372.226562 479.898438 373.011719 C 478.496094 374.417969 476.96875 375.664062 475.308594 376.75 C 472.015625 378.933594 468.980469 381.492188 465.53125 383.449219 C 461.902344 385.507812 458.25 387.527344 454.703125 389.71875 C 450.214844 392.496094 445.800781 395.433594 442.96875 400.085938 C 441.488281 402.515625 440.128906 405.039062 438.871094 407.59375 C 435.203125 414.988281 433.21875 422.816406 432.925781 431.070312 C 432.832031 433.617188 433.171875 436.109375 433.511719 438.613281 C 434.246094 444.0625 434.695312 449.527344 434.359375 455.027344 C 434.109375 459.082031 433.820312 463.140625 433.539062 467.191406 C 433.46875 468.171875 433.328125 469.152344 433.816406 470.050781 C 434.726562 470.257812 434.972656 469.527344 435.355469 469.050781 C 440.183594 462.726562 445.832031 457.199219 451.953125 452.167969 C 456.792969 448.160156 462 444.703125 467.570312 441.796875 C 470.476562 440.289062 473.636719 439.253906 476.679688 438.007812 C 482.976562 435.414062 489.273438 432.820312 495.566406 430.226562 C 498.125 429.171875 500.351562 427.53125 502.644531 426.042969 C 503.746094 425.320312 504.566406 424.265625 505.402344 423.230469 C 506.507812 421.863281 507.691406 420.566406 508.863281 419.246094 C 509.074219 418.992188 509.3125 418.765625 509.574219 418.5625 C 509.777344 418.425781 510 418.34375 510.246094 418.316406 C 510.492188 418.289062 510.730469 418.320312 510.957031 418.40625 C 511.1875 418.496094 511.382812 418.632812 511.546875 418.816406 C 511.710938 419.003906 511.820312 419.214844 511.878906 419.453125 C 511.976562 420.105469 512.023438 420.761719 512.019531 421.421875 C 512.070312 427.355469 511.953125 433.296875 511.109375 439.171875 C 510.367188 444.378906 509.355469 449.523438 507.265625 454.457031 C 505.371094 458.910156 503.464844 463.308594 501.109375 467.542969 C 499.773438 469.933594 498.554688 472.378906 497.039062 474.671875 C 495.328125 477.367188 493.363281 479.867188 491.148438 482.171875 C 487.589844 485.761719 483.839844 489.074219 479.535156 491.828125 C 471.898438 496.730469 463.679688 500.378906 455.175781 503.308594 C 450.316406 504.988281 445.3125 506.316406 440.371094 507.792969 C 439.519531 508.015625 438.6875 508.292969 437.875 508.628906 C 435.078125 509.902344 432.300781 511.214844 429.523438 512.542969 C 427.230469 513.675781 425.238281 515.203125 423.546875 517.121094 C 422.765625 517.941406 422.296875 518.910156 422.136719 520.027344 C 420.980469 528.214844 418.898438 536.191406 416.671875 544.125 C 415.109375 549.710938 413.570312 555.3125 411.265625 560.671875 C 409.367188 565.105469 408.027344 569.773438 406.34375 574.304688 C 404.089844 580.375 401.902344 586.480469 399.058594 592.3125 C 396.75 597.046875 394.273438 601.699219 391.921875 606.410156 C 390.648438 608.964844 389.476562 611.566406 388.265625 614.152344 C 388.035156 614.648438 387.878906 615.183594 387.636719 615.691406 C 385.355469 620.308594 383.144531 624.988281 380.753906 629.546875 C 377.132812 636.449219 373.4375 643.3125 369.667969 650.132812 C 367.167969 654.644531 364.472656 659.050781 361.855469 663.496094 C 361.621094 663.871094 361.367188 664.230469 361.085938 664.574219 C 359.703125 666.375 358.957031 666.496094 356.632812 665.273438 C 356.3125 664.316406 356.78125 663.566406 357.304688 662.847656 C 358.726562 660.894531 360.105469 658.910156 361.589844 657.007812 C 363.96875 653.964844 365.847656 650.601562 367.863281 647.339844 C 371.945312 640.808594 375.585938 634.042969 378.785156 627.039062 C 380.6875 622.804688 382.957031 618.808594 385.226562 614.792969 C 387.078125 611.546875 388.753906 608.210938 390.25 604.785156 C 392.558594 599.445312 395.152344 594.230469 397.449219 588.886719 C 399.121094 585.007812 399.375 586.066406 397.011719 582.039062 C 393.300781 575.742188 388.40625 570.414062 383.625 564.96875 C 380.410156 561.324219 376.648438 558.28125 372.671875 555.523438 C 369.332031 553.214844 365.957031 550.941406 362.511719 548.792969 C 356.164062 544.84375 350.136719 540.4375 344.074219 536.09375 C 339.457031 532.777344 335.871094 528.46875 332.65625 523.863281 C 327.5 516.472656 322.570312 508.933594 318.421875 500.917969 C 316.300781 496.808594 314.867188 492.40625 313.386719 488.035156 C 313.078125 487.105469 312.96875 486.109375 313.914062 485.144531 C 316.199219 485.785156 318.394531 486.65625 320.492188 487.761719 C 322.457031 488.734375 324.386719 489.808594 326.410156 490.648438 C 331.230469 492.644531 336.339844 493.375 341.503906 493.785156 C 347.453125 494.203125 353.234375 495.429688 358.84375 497.457031 C 362.472656 498.75 365.953125 500.363281 369.289062 502.289062 C 373.015625 504.511719 376.214844 507.238281 378.632812 510.914062 C 381.53125 515.316406 384.730469 519.523438 386.917969 524.359375 C 387.597656 525.855469 388.175781 527.398438 388.84375 528.894531 C 392.101562 536.027344 393.898438 543.605469 395.96875 551.125 C 397.671875 557.304688 398.46875 563.605469 399.519531 569.878906 C 399.941406 572.367188 400.332031 574.882812 400.75 577.355469 C 400.824219 577.78125 400.859375 578.238281 401.304688 578.511719 C 402.230469 578.421875 402.460938 577.625 402.710938 576.972656 C 404.148438 573.054688 405.699219 569.171875 406.921875 565.183594 C 410.015625 555.101562 413.019531 544.992188 415.921875 534.851562 C 416.941406 531.269531 417.527344 527.539062 418.265625 523.894531 C 418.425781 523.246094 418.433594 522.597656 418.289062 521.945312 C 417.589844 519.636719 418.089844 517.363281 418.402344 515.089844 C 418.828125 511.933594 419.371094 508.789062 419.863281 505.644531 C 419.859375 505.535156 419.875 505.425781 419.902344 505.320312 C 421.203125 502.242188 420.230469 499.398438 419.078125 496.492188 C 416.433594 489.828125 413.308594 483.488281 409.007812 477.679688 C 404.628906 471.757812 399.933594 466.089844 395.484375 460.230469 C 392.558594 456.382812 388.945312 453.117188 385.78125 449.453125 C 383.910156 447.296875 382.089844 445.097656 380.292969 442.875 C 379.664062 442.109375 379.121094 441.285156 378.671875 440.402344 C 376.507812 436.078125 374.171875 431.835938 372.777344 427.171875 C 372.496094 426.21875 372.199219 425.269531 371.375 424.613281 C 368.832031 422.589844 367.03125 419.949219 365.480469 417.167969 C 363.832031 414.199219 362.054688 411.300781 360.691406 408.167969 C 359.851562 406.242188 359.300781 404.238281 358.640625 402.261719 C 356.054688 394.703125 354.859375 386.933594 355.046875 378.949219 C 355.175781 375.304688 355.726562 371.726562 356.703125 368.214844 C 357.773438 364.136719 359.53125 360.378906 361.980469 356.945312 C 362.183594 356.726562 362.414062 356.542969 362.671875 356.390625 C 363.285156 356.332031 363.8125 356.519531 364.25 356.957031 C 368.042969 360.125 372.328125 362.65625 376.082031 365.871094 C 377.699219 367.195312 379.414062 368.375 381.234375 369.402344 C 384.726562 371.523438 387.882812 374.0625 390.695312 377.023438 C 395.9375 382.410156 400.105469 388.570312 403.839844 395.070312 C 407.210938 400.941406 409.363281 407.257812 411.34375 413.660156 C 412.5 417.328125 413.546875 421.023438 414.597656 424.71875 C 415.019531 426.210938 415.472656 427.644531 416.632812 428.777344 C 420.554688 432.617188 423.058594 437.382812 425.554688 442.148438 C 427.152344 445.167969 428.222656 448.40625 429.402344 451.601562 C 429.613281 452.175781 429.617188 452.960938 430.476562 453.085938 C 430.929688 452.835938 430.941406 452.398438 430.957031 451.964844 C 431.117188 448.785156 431.058594 445.605469 430.78125 442.429688 C 430.011719 434.890625 429.34375 427.34375 428.59375 419.800781 C 428.039062 414.539062 426.945312 409.390625 425.3125 404.355469 C 424.648438 402.265625 424.160156 400.121094 423.617188 397.992188 C 422.453125 393.527344 421.285156 389.066406 420.113281 384.605469 C 419.726562 383.121094 419.34375 381.625 418.871094 380.164062 C 416.90625 374.101562 414.882812 368.058594 412.9375 361.996094 C 411.328125 356.953125 410.257812 351.800781 409.726562 346.535156 C 409.578125 345.109375 409.5 343.6875 408.746094 342.273438 C 406.855469 341.503906 404.816406 341.378906 402.71875 341.503906 C 397.449219 341.867188 392.257812 342.789062 387.070312 343.671875 C 380.996094 344.675781 374.890625 345.316406 368.742188 345.597656 C 364.265625 345.816406 359.746094 345.726562 355.277344 344.828125 C 352.585938 344.277344 349.875 343.855469 347.179688 343.347656 C 343.484375 342.652344 340.097656 341.191406 336.648438 339.695312 C 330.597656 337.070312 325.558594 332.988281 320.460938 329.054688 C 314.898438 324.765625 310.074219 319.628906 305.691406 314.085938 C 302.765625 310.378906 299.78125 306.71875 296.78125 303.070312 C 295.816406 301.894531 294.539062 300.957031 294.054688 299.425781 C 294.023438 299.152344 294.027344 298.882812 294.058594 298.609375 Z M 294.058594 298.609375 " fill-opacity="1" fill-rule="nonzero"/></g></svg>